# Created by Open3D 
# object name: mesh_20251205_213238
# number of vertices: 111
# number of triangles: 90
v -0.00225245 0.0111629 0.12073 0.894764 0.99217 0
vn 0.995756 0.069999 -0.0597464
v 0.00919375 -0.0252461 0.0821446 0.305496 0.984055 0.0159446
vn 0.997288 0.0525154 0.0515677
v 0.00876894 -0.0341982 0.0876589 0.41486 0.947844 0.0449582
vn 0.994957 0.0993373 0.013905
v 0.000196094 -0.0487237 0.124099 0.944862 0.986954 0
vn 0.999206 0.030707 -0.0253959
v -0.00225843 -0.0229992 0.0611523 0.020482 0.932317 0.0676833
vn 0.99175 0.0830332 0.0976554
v -0.0148273 -0.00834952 0.0994865 0.56505 1 0
vn 0.990186 0.0850374 0.11091
v 0.00187136 -0.058691 0.129214 1 0.955564 0
vn 0.851457 0.522482 0.0450961
v 0.000680819 -0.0431533 0.102087 0.606104 1 0
vn 0.982442 0.163095 0.0906014
v -0.00374641 -0.0267885 0.0746749 0.173288 1 0
vn 0.977321 0.134661 0.163433
v -0.000829862 -0.0274712 0.10044 0.580098 1 0
vn 0.989509 0.127082 0.0687198
v 0.000960185 -0.0392023 0.0879612 0.383072 1 0
vn 0.964252 0.225338 0.139428
v 0.00355157 -0.0632058 0.142474 1 0.746207 0
vn 0.976992 0.190577 -0.0957472
v -0.0159994 -0.00574188 0.140493 1 0.777474 0
vn 0.907235 -0.17608 -0.381995
v 0.0097709 -0.0429069 0.108428 0.697257 0.988581 0
vn 0.990619 0.133658 0.0284642
v 0.00792383 -0.0211102 0.0692241 0.155393 0.927243 0.0727566
vn 0.997825 0.0439164 0.0491599
v 0.00287051 -0.0139642 0.0395746 0 0.609073 0.390927
vn 0.999587 0.0208719 0.0197664
v -0.0160198 -0.0329472 0.13667 1 0.837835 0
vn 0.978164 0.0888416 -0.187887
v 0.00924563 -0.0560194 0.146067 1 0.689471 0
vn 0.986968 0.116166 -0.111355
v 0.00937673 -0.0389329 0.122266 0.861946 0.932019 0
vn 0.997167 0.0752205 0.000215609
v 0.0102885 0.0482415 0.156654 1 0.522304 0
vn 0.884119 0.447598 -0.134126
v 0.00868016 -0.0483793 0.120323 0.814392 0.914976 0
vn 0.98898 0.147576 -0.0118536
v 0.00546908 -0.016607 0.0530809 0.0567261 0.767387 0.232613
vn 0.998195 0.0480557 0.036006
v 0.0100487 0.0148867 0.12264 0.881635 0.946706 0
vn 0.990123 0.0956021 -0.102549
v 0.0112236 -0.0561197 0.169413 1 0.320841 0
vn 0.981031 -0.0189255 -0.192923
v -0.000232684 -0.0455356 0.137618 1 0.822868 0
vn 0.987733 0.0718268 -0.138653
v 0.00974859 -0.0262065 0.10224 0.606372 0.996818 0
vn 0.996891 0.0738139 0.027565
v 0.0086196 -0.0482142 0.137524 0.977218 0.802878 0
vn 0.993436 0.101492 -0.0527605
v -0.00161173 -0.00488734 0.0469768 0 0.725949 0.274051
vn 0.996088 0.0114855 0.0876195
v 0.0143786 -0.00469563 0.157522 1 0.508604 0
vn 0.939301 -0.0577157 -0.338205
v 0.0086654 0.0124476 0.0768427 0.237612 0.967327 0.0326726
vn 0.998354 0.0358792 0.0447371
v -0.0148447 -0.0412621 0.12595 0.967316 0.97935 0
vn 0.973652 0.155108 0.167163
v -0.0159586 -0.0425396 0.138494 1 0.809036 0
vn 0.973248 0.162723 -0.162204
v -0.0162051 0.0101914 0.140119 1 0.78339 0
vn 0.92585 0.339863 -0.165213
v 0.00949105 0.0112232 0.101133 0.590017 0.998332 0
vn 0.995907 0.089011 -0.0157061
v 0.0100586 -0.00904426 0.101294 0.592639 0.998495 0
vn 0.998311 0.0531791 -0.0233968
v 0.00569932 -0.0199946 0.160571 1 0.460451 0
vn 0.897092 -0.152662 -0.414634
v -0.00225247 -0.00968857 0.0751607 0.180958 1 0
vn 0.991697 0.0712489 0.107052
v 0.0053989 -0.000677715 0.0431509 0.00130023 0.664475 0.335525
vn 0.999749 0.0125483 0.018558
v 0.00980842 -0.00607584 0.117857 0.818325 0.959575 0
vn 0.998237 0.0314062 -0.0503679
v 0.0106807 -0.0454582 0.152998 1 0.580038 0
vn 0.987932 0.00950772 -0.154598
v -0.00254487 -0.00766164 0.0575759 0.00881879 0.886056 0.113944
vn 0.999045 0.00109923 0.0436798
v 0.00273702 -0.00531497 0.0288609 0 0.439908 0.560092
vn 0.999415 0.0246508 0.0237086
v 0.00970767 -0.0243614 0.123153 0.884019 0.940421 0
vn 0.999538 0.0299157 -0.00538425
v -0.000525559 -0.00792876 0.101567 0.5979 1 0
vn 0.996957 -0.0123985 0.0769559
v 0.0015795 -0.0274058 0.123932 0.942009 0.98691 0
vn 0.996112 0.0837403 -0.0273426
v -0.0144705 -0.0414752 0.107 0.683684 1 0
vn 0.921537 0.349641 0.168882
v 0.00710575 -0.00902067 0.0585047 0.0467504 0.863426 0.136574
vn 0.999697 0.000422744 0.0245938
v -0.0153415 -0.030265 0.124205 0.940785 0.9809 0
vn 0.975753 0.213513 -0.0481476
v 0.0110143 -0.0280374 0.141075 0.974291 0.744272 0
vn 0.994008 -0.00268652 -0.109275
v 7.61282e-05 -0.0283379 0.137571 1 0.823619 0
vn 0.948938 0.0299583 -0.314037
v 0.00889815 -0.00813292 0.0798431 0.288642 0.963277 0.036723
vn 0.999447 0.022641 0.0243736
v -0.0153587 -0.0201502 0.10553 0.660478 1 0
vn 0.968141 0.149937 0.200553
v 0.00778503 0.0432509 0.161108 1 0.451982 0
vn 0.912551 0.366245 -0.181977
v 0.00334266 -0.0094462 0.12016 0.889187 0.99622 0
vn 0.999362 0.0314242 -0.0169548
v 0.0149527 -0.0241755 0.160232 1 0.465816 0
vn 0.977083 -0.0277919 -0.211038
v 0.00109748 -0.00870317 0.139644 1 0.790881 0
vn 0.938883 -0.141797 -0.313676
v 0.0115953 0.00684866 0.134745 0.970843 0.841592 0
vn 0.991293 0.0486018 -0.122374
v 0.0112472 -0.00981144 0.135339 0.973479 0.834498 0
vn 0.995245 0.0394907 -0.08904
v -0.0150992 -0.00574095 0.122129 0.916583 0.99152 0
vn 0.987146 -0.107247 -0.118496
v 0.0014602 0.000842919 0.0116354 0 0.167927 0.832073
vn 0.998133 0.0480151 0.0377465
v 0.0181145 -0.0184372 0.172221 1 0.276511 0
vn 0.955032 -0.0666294 -0.288921
v -0.00352193 0.0138744 0.13885 1 0.803415 0
vn 0.88224 0.202901 -0.424834
v 0.0149834 0.00255473 0.152395 1 0.589556 0
vn 0.978725 0.0520125 -0.198475
v -0.00312524 0.0104689 0.10025 0.577107 1 0
vn 0.989307 -0.0269836 0.143333
v -0.000569844 0.0124087 0.0744607 0.169906 1 0
vn 0.988327 -0.0326549 0.148804
v 0.0185467 0.00611666 0.172567 1 0.271053 0
vn 0.958645 0.105486 -0.264334
v -0.00220342 0.0111153 0.0573694 0.00988517 0.88187 0.11813
vn 0.994066 0.0183088 0.107231
v 0.00730895 0.0054046 0.0615356 0.0782624 0.881194 0.118806
vn 0.998293 0.0135785 0.0568087
v 0.00137387 0.0138878 0.0441013 0.00356017 0.677862 0.322138
vn 0.998529 0.0256697 0.0477502
v -0.0159451 0.00794739 0.120952 0.899219 0.993633 0
vn 0.990303 0.0877115 -0.107735
v -0.0149246 0.00808314 0.102417 0.611316 1 0
vn 0.972738 0.0687798 0.221471
v 0.00375905 0.012318 0.0488943 0.00573767 0.751637 0.248363
vn 0.998938 0.0253973 0.0384482
v 0.0102074 0.0457511 0.143765 0.981213 0.708587 0
vn 0.898067 0.422869 -0.12107
v 0.0125599 0.0275098 0.136263 0.958945 0.8065 0
vn 0.965824 0.213706 -0.146676
v -0.00620244 0.0333118 0.135397 1 0.85794 0
vn 0.986154 0.159231 -0.0463161
v -0.00641581 0.0324876 0.123783 0.938578 0.985583 0
vn 0.997065 0.0383599 0.0662493
v 0.0103433 0.0300676 0.11554 0.797446 0.976976 0
vn 0.979899 0.183185 -0.078996
v 0.00349803 0.00766075 0.0362954 0.00309066 0.554745 0.445255
vn 0.999029 0.0273745 0.0345234
v 0.0102079 0.0295254 0.10256 0.613324 0.999572 0
vn 0.986696 0.150131 -0.062391
v -0.00269143 0.0548591 0.150155 0.989056 0.615161 0
vn 0.861882 0.484163 -0.15082
v -0.00584835 0.0323926 0.100142 0.575395 1 0
vn 0.988115 -0.0897814 0.124771
v -0.0181105 0.0379331 0.138365 1 0.811072 0
vn 0.950803 0.263912 -0.162247
v -0.0171382 0.0353111 0.123313 0.929079 0.983675 0
vn 0.998159 0.0294697 0.053003
v -0.0149881 0.0315135 0.104523 0.644569 1 0
vn 0.969636 -0.177677 0.168039
v -0.01692 0.0493198 0.141804 1 0.756779 0
vn 0.970626 -0.237952 -0.0355555
v -0.00764378 0.0376227 0.160536 1 0.461015 0
vn 0.938325 0.244812 -0.244159
v 0.00948047 0.0249887 0.0891663 0.412243 0.988819 0.0111806
vn 0.995055 0.0980529 0.0158545
v -0.0083994 0.0388002 0.0958639 0.507851 1 0
vn 0.994869 -0.00829306 0.100833
v 0.015726 0.0307719 0.157647 1 0.506627 0
vn 0.948767 0.263706 -0.174068
v -0.00298175 0.0501237 0.136767 1 0.836315 0
vn 0.81377 0.571255 -0.10699
v -0.0143189 0.0259234 0.0896 0.408947 1 0
vn 0.97859 -0.0660353 0.194937
v 0.00264629 0.0185408 0.0539842 0.00896883 0.829443 0.170557
vn 0.997954 0.0351957 0.0533761
v -0.00322373 0.0506542 0.122878 0.831334 0.893232 0
vn 0.943376 0.326176 -0.060422
v 0.00363652 0.0209352 0.0627145 0.190075 0.789168 0.210832
vn 0.996998 0.0573196 0.0520599
v -0.0156977 0.0460009 0.124099 0.942269 0.984754 0
vn 0.977926 -0.105993 0.180075
v 0.0068482 0.0450382 0.128477 0.91516 0.887102 0
vn 0.912836 0.393563 -0.108804
v 0.00491435 0.0377768 0.102604 0.620233 0.989109 0.00838545
vn 0.970603 0.236486 -0.0447594
v -0.00741464 0.0411137 0.103136 0.619944 0.995951 0
vn 0.988545 0.142071 0.0509404
v 0.00381314 0.0522187 0.14574 0.977643 0.674277 0
vn 0.876619 0.462999 -0.13104
v -0.00191298 0.0388833 0.0968972 0.532492 0.98612 0.0111806
vn 0.989448 0.137716 0.0450333
v 0.00286843 0.00642493 0.0235612 0.00432692 0.352658 0.647342
vn 0.997748 0.0450923 0.0496582
v -0.0179952 -0.0342182 0.1635 1 0.414211 0
vn 0.955377 0.108614 -0.274695
v -0.0216611 0.0461519 0.1615 1 0.44579 0
vn 0.980591 0.0166367 -0.195356
v 0.0118165 -0.0588813 0.181333 1 0.132632 0
vn 0.970974 -0.0698046 -0.228774
v 0.00478286 -0.0521467 0.162 1 0.437895 0
vn 0.970656 0.0719893 -0.229446
v 0.0160958 -0.0361886 0.178472 1 0.177807 0
vn 0.966946 -0.0622236 -0.247273
v 0.0149277 -0.0389454 0.169807 1 0.314625 0
vn 0.968507 -0.0589005 -0.241921
v -0.0142443 -0.0161014 0.0885 0.391579 1 0
vn 0.970983 0.107938 0.213402
v -0.0181571 0.0417762 0.155 1 0.548421 0
vn 0.989636 0.0553156 -0.132517
v 0.00524857 0.00238571 0.167 1 0.358947 0
vn 0.933391 0.0576457 -0.3542
v -0.00567333 0.04646 0.161 1 0.453684 0
vn 0.903077 0.366635 -0.223678
f 2//2 26//26 3//3
f 3//3 15//15 2//2
f 15//15 51//51 2//2
f 51//51 26//26 2//2
f 51//51 35//35 26//26
f 35//35 39//39 26//26
f 39//39 43//43 26//26
f 43//43 19//19 26//26
f 19//19 14//14 26//26
f 14//14 3//3 26//26
f 19//19 21//21 14//14
f 19//19 27//27 21//21
f 27//27 18//18 21//21
f 27//27 40//40 18//18
f 40//40 24//24 18//18
f 40//40 107//107 24//24
f 107//107 106//106 24//24
f 106//106 104//104 24//24
f 107//107 61//61 106//106
f 107//107 55//55 61//61
f 55//55 63//63 61//61
f 63//63 66//66 61//61
f 63//63 89//89 66//66
f 89//89 53//53 66//66
f 89//89 20//20 53//53
f 20//20 99//99 53//53
f 99//99 80//80 53//53
f 99//99 93//93 80//80
f 99//99 96//96 93//93
f 96//96 97//97 93//93
f 96//96 77//77 97//97
f 77//77 79//79 97//97
f 79//79 87//87 97//97
f 79//79 34//34 87//87
f 34//34 30//30 87//87
f 30//30 94//94 87//87
f 30//30 68//68 94//94
f 68//68 72//72 94//94
f 72//72 92//92 94//94
f 72//72 69//69 92//92
f 72//72 78//78 69//69
f 72//72 38//38 78//78
f 38//38 42//42 78//78
f 42//42 101//101 78//78
f 42//42 60//60 101//101
f 38//38 22//22 42//42
f 22//22 16//16 42//42
f 38//38 47//47 22//22
f 47//47 15//15 22//22
f 47//47 51//51 15//15
f 47//47 68//68 51//51
f 68//68 30//30 51//51
f 30//30 34//34 51//51
f 34//34 35//35 51//51
f 34//34 39//39 35//35
f 34//34 23//23 39//39
f 23//23 57//57 39//39
f 57//57 58//58 39//39
f 58//58 43//43 39//39
f 58//58 49//49 43//43
f 49//49 19//19 43//43
f 49//49 27//27 19//19
f 49//49 40//40 27//27
f 49//49 55//55 40//40
f 55//55 107//107 40//40
f 49//49 63//63 55//55
f 49//49 58//58 63//63
f 58//58 57//57 63//63
f 57//57 74//74 63//63
f 74//74 89//89 63//63
f 74//74 73//73 89//89
f 73//73 20//20 89//89
f 73//73 99//99 20//20
f 73//73 96//96 99//99
f 73//73 74//74 96//96
f 74//74 77//77 96//96
f 74//74 23//23 77//77
f 23//23 34//34 77//77
f 34//34 79//79 77//77
f 74//74 57//57 23//23
f 47//47 38//38 68//68
f 38//38 72//72 68//68
f 88//88 100//100 98//98
f 100//100 93//93 98//98
f 14//14 21//21 3//3
f 87//87 94//94 97//97
f 94//94 100//100 97//97
f 15//15 3//3 22//22
f 61//61 66//66 106//106
f 101//101 94//94 78//78
