# Created by Open3D 
# object name: mesh_20251205_213432
# number of vertices: 109
# number of triangles: 88
v -0.000408634 0.00930428 0.119198 0.837616 0.999415 0
vn 0.997249 0.0539011 -0.0508902
v 0.00930718 -0.0228448 0.0855926 0.332407 0.984235 0.0157648
vn 0.996065 0.0829858 0.0311106
v 0.00912775 -0.0306085 0.0808247 0.29945 0.941795 0.0582047
vn 0.996109 0.0831175 0.0292889
v -0.00026362 -0.0489226 0.123691 0.906951 0.998962 0
vn 0.996282 0.0173338 0.0843884
v -0.00186107 -0.0231096 0.0611991 0.0123573 0.920867 0.0791329
vn 0.999253 0.0385961 -0.00167424
v -0.0149999 -0.00588897 0.10265 0.581901 1 0
vn 0.974521 0.144998 0.171125
v 0.000566394 -0.0433337 0.102444 0.57872 1 0
vn 0.960779 0.230004 0.154923
v 0.00877191 -0.0528536 0.123427 0.853548 0.946655 0
vn 0.997734 0.0668362 0.00774564
v -0.00428843 -0.0269399 0.0750579 0.155225 1 0
vn 0.97164 0.193441 0.135998
v 0.00646158 -0.0644664 0.153535 1 0.621208 0
vn 0.992682 0.00637796 -0.120587
v -0.000347015 -0.0268409 0.100366 0.54659 1 0
vn 0.968666 0.183897 0.166938
v 0.000861165 -0.0394261 0.0880248 0.355744 1 0
vn 0.974426 0.200791 0.100885
v -0.0174206 -0.00502435 0.141505 1 0.807243 0
vn 0.9558 -0.0437869 -0.290739
v 0.00907284 -0.0434706 0.108361 0.669753 0.998581 0
vn 0.994029 0.10056 0.0423594
v 0.00799868 -0.0214897 0.0693043 0.142477 0.919056 0.0809443
vn 0.998193 0.0489395 0.0348752
v 0.00011786 -0.020366 0.0478542 0 0.72455 0.27545
vn 0.999938 -0.000178228 0.0111217
v 0.00570698 0.00926607 0.0458941 0.000625939 0.693745 0.306255
vn 0.999198 0.0323206 0.0236364
v 0.00932732 -0.041999 0.124972 0.858813 0.927292 0
vn 0.999421 0.0258485 -0.0221124
v -0.0165195 -0.0308348 0.137109 1 0.875227 0
vn 0.966412 0.241172 -0.0887893
v 0.0082214 -0.0546362 0.148517 0.975355 0.676064 0
vn 0.992768 0.00161581 -0.120037
v 0.0105235 -0.0444573 0.139843 0.961748 0.79663 0
vn 0.994026 -0.0401026 -0.101507
v 0.0100255 -0.0287692 0.104789 0.614914 0.999784 0
vn 0.994546 0.104159 0.00534363
v -0.000641887 -0.0471263 0.13701 1 0.876758 0
vn 0.987961 0.146923 0.0484334
v -0.00140867 -0.00425949 0.046816 0 0.708495 0.291505
vn 0.999188 -0.0335255 0.0223567
v 0.0142848 0.00911138 0.156033 1 0.582588 0
vn 0.9807 0.0423963 -0.190865
v 0.00563164 -0.0142593 0.0472937 0.0533031 0.664249 0.335751
vn 0.999294 0.0233595 0.0294314
v 0.0097225 0.0148057 0.122904 0.846794 0.948262 0
vn 0.996444 0.0630853 -0.0558601
v -0.0155518 0.00864765 0.122233 0.884527 0.99934 0
vn 0.991263 0.0912308 -0.0952604
v 0.0155113 -0.0192927 0.171229 1 0.347592 0
vn 0.962135 0.014542 -0.272185
v -0.0180961 -0.0325476 0.1595 1 0.528969 0
vn 0.921617 0.0635652 -0.38286
v -0.00230691 -0.00849679 0.0572065 0.00470142 0.865459 0.134541
vn 0.99959 0.00349739 0.0284355
v -0.000620903 -0.00764813 0.100685 0.551519 1 0
vn 0.991579 0.114268 0.0609391
v 0.00110907 -0.0271029 0.123082 0.897554 0.99905 0
vn 0.99354 0.111977 0.0184424
v 0.00734384 -0.0064376 0.0615301 0.0682717 0.870953 0.129047
vn 0.999683 -0.00395365 0.0248481
v 0.00819755 0.00949429 0.0739479 0.187487 0.946932 0.0530679
vn 0.999819 0.0154832 0.0110858
v -0.0154423 -0.0395853 0.126231 0.946061 0.998477 0
vn 0.948801 0.293679 0.116319
v 0.0103778 -0.0273786 0.120421 0.824712 0.965769 0
vn 0.998989 0.02511 -0.0373017
v 0.00934071 0.0113158 0.100737 0.5523 0.999919 0
vn 0.997295 0.0700326 -0.0223114
v -0.0166454 -0.0411689 0.141287 1 0.810608 0
vn 0.977758 0.203332 -0.0514314
v -0.0168586 0.0100509 0.141529 1 0.806875 0
vn 0.948784 0.207117 -0.23856
v 0.00965072 -0.0119202 0.0978897 0.508276 0.999944 0
vn 0.998262 0.0534747 -0.0247499
v 0.00320054 -0.00316917 0.026932 0 0.40101 0.59899
vn 0.99902 0.00606881 0.0438383
v -0.00250389 -0.0105946 0.0759738 0.169388 1 0
vn 0.989714 0.0833048 0.116307
v 0.00536202 -0.00112202 0.0437966 0.000870581 0.661118 0.338882
vn 0.999691 0.0106537 0.0224527
v -0.0158974 -0.0278636 0.124834 0.923828 0.996543 0
vn 0.937093 0.268245 0.223387
v 0.0111064 -0.0257044 0.138433 0.950473 0.80842 0
vn 0.990406 -0.00436285 -0.138119
v -0.000638881 -0.0287963 0.138357 1 0.855918 0
vn 0.986611 0.0637319 -0.150125
v 0.00867778 -0.00797272 0.0802449 0.265824 0.966996 0.0330038
vn 0.99968 0.0249234 0.00421517
v -0.0154926 -0.0199993 0.106988 0.648987 1 0
vn 0.950665 0.209618 0.228685
v -0.014124 -0.0157383 0.0891667 0.373402 1 0
vn 0.974182 0.160075 0.159204
v -0.00988106 0.0419721 0.166444 1 0.421581 0
vn 0.907939 -0.017188 -0.418751
v 0.00362171 -0.0164755 0.1581 1 0.550619 0
vn 0.925238 -0.0979501 -0.366525
v 0.00986616 -0.00799074 0.120195 0.810476 0.953813 0
vn 0.997902 0.034708 -0.0546499
v 0.0158662 0.0407336 0.165822 1 0.431214 0
vn 0.959472 0.117494 -0.256143
v 0.00327927 -0.009788 0.120772 0.861991 0.999541 0
vn 0.99074 -0.0417915 -0.12918
v 0.0149168 -0.0237445 0.15587 1 0.585106 0
vn 0.979542 -0.0278857 -0.1993
v 0.00114195 -0.00795493 0.139647 1 0.835975 0
vn 0.916112 -0.231018 -0.327672
v 0.0105921 0.00534527 0.135019 0.949645 0.860449 0
vn 0.995637 0.0391343 -0.0847139
v 0.0111658 -0.00710083 0.138234 0.971702 0.831486 0
vn 0.990798 0.0377725 -0.129974
v -0.0159695 -0.00370627 0.120478 0.85723 0.998892 0
vn 0.991459 -0.0252687 -0.127946
v 0.00160899 0.00901756 0.141759 1 0.803308 0
vn 0.967801 0.202109 -0.150043
v -0.00266856 0.00901348 0.100183 0.543752 1 0
vn 0.995147 -0.0402676 0.0897879
v -0.0146409 0.00830567 0.104143 0.604993 1 0
vn 0.984053 0.0500162 0.1707
v -0.00198373 0.0102255 0.0775942 0.194447 1 0
vn 0.990415 -0.0318501 0.134402
v -0.00193305 0.0114025 0.0565412 0.00332763 0.856391 0.143609
vn 0.998286 0.0079279 0.0579882
v 0.00701123 0.00938387 0.0573829 0.0361082 0.837866 0.162134
vn 0.999502 0.0257879 0.018173
v -0.00185761 0.0114901 0.047338 0 0.716566 0.283434
vn 0.99819 0.0175335 0.057523
v 0.0124647 0.0467664 0.145094 0.968674 0.722053 0
vn 0.969341 0.208384 -0.130209
v 0.0113552 0.026944 0.136219 0.93343 0.826119 0
vn 0.981672 0.161568 -0.101077
v -0.00582604 0.0351134 0.12351 0.904051 0.99865 0
vn 0.996959 0.0616423 0.047682
v 0.0101441 0.0296394 0.115267 0.755002 0.976502 0
vn 0.984086 0.163095 -0.0705297
v -0.0174998 0.0392125 0.136387 1 0.886386 0
vn 0.999691 -0.0227897 0.00991937
v -0.00537105 0.0348837 0.138045 1 0.860749 0
vn 0.99728 0.0701279 0.0226817
v -0.0173252 0.0371487 0.125675 0.937336 0.998066 0
vn 0.988996 -0.0820723 0.123092
v -0.0149768 0.0323106 0.104203 0.605917 1 0
vn 0.933935 -0.165212 0.31697
v -0.0150806 0.0636635 0.148 1 0.706804 0
vn 0.978774 -0.185216 -0.0877278
v -0.00433677 0.0325752 0.0996415 0.535384 1 0
vn 0.97575 -0.0997733 0.194825
v 0.00990655 0.0295965 0.102405 0.578109 0.999978 0
vn 0.98894 0.133376 -0.06488
v -0.0179473 0.0464477 0.141974 1 0.799989 0
vn 0.962685 -0.251062 -0.101021
v -0.00785164 0.0383584 0.15967 1 0.526337 0
vn 0.907939 -0.017188 -0.418751
v -0.00792038 0.038933 0.096535 0.487346 1 0
vn 0.996646 0.0486432 0.0658121
v 0.00919706 0.0251957 0.089236 0.386862 0.986481 0.0135186
vn 0.996524 0.082123 -0.0139924
v 0.00415495 0.0060384 0.0340849 0 0.511623 0.488377
vn 0.998982 0.024646 0.0377698
v -0.00232514 0.0511075 0.137576 1 0.868003 0
vn 0.80471 0.572857 -0.155809
v 0.0131709 0.0499407 0.157398 1 0.561467 0
vn 0.972373 0.154126 -0.175319
v 0.0041183 0.0259305 0.0746879 0.219853 0.925227 0.0747728
vn 0.995431 0.0947933 0.0114469
v -0.000703288 0.0270298 0.0644942 0.121964 0.862695 0.137305
vn 0.995287 0.0947546 0.0206023
v -0.00790718 0.0451243 0.110815 0.708046 0.999623 0
vn 0.983027 0.183168 -0.0104045
v 0.00986016 0.046591 0.133302 0.897993 0.836339 0
vn 0.977385 0.193113 -0.0861734
v -0.0153051 0.0466564 0.123185 0.899009 0.998628 0
vn 0.935508 -0.314743 0.160502
v 0.00516284 0.0392634 0.105082 0.592814 0.952591 0.0101389
vn 0.983806 0.169769 -0.0574824
v 0.00125663 0.0221845 0.0526663 0.00101154 0.798196 0.201804
vn 0.997072 0.0751212 0.0142838
v -0.00694918 0.0409817 0.103223 0.590681 0.999717 0
vn 0.991785 0.126704 0.0175459
v -0.00160256 0.0365425 0.0913824 0.434175 0.970983 0.0288554
vn 0.991737 0.1279 0.00997416
v 0.0166465 -0.0155095 0.182563 1 0.172332 0
vn 0.954619 0.0389481 -0.295272
v 0.00262339 -0.00524313 0.0217528 0 0.32092 0.67908
vn 0.99886 0.0131083 0.0459084
v -0.015635 0.0317336 0.15525 1 0.594691 0
vn 0.964242 0.0368727 -0.262446
v 0.00654562 0.0509325 0.124466 0.823306 0.90065 0
vn 0.971006 0.20426 -0.1242
v 0.00352134 0.0153133 0.0450099 0.00272034 0.678423 0.321577
vn 0.998097 0.0551979 0.0275031
v 0.0081691 -0.0612529 0.160464 1 0.514063 0
vn 0.987725 0.00624955 -0.15608
v 0.0127157 0.0347401 0.154142 1 0.611825 0
vn 0.983744 0.090924 -0.154855
v -0.0140712 0.0274288 0.08875 0.366959 1 0
vn 0.989554 -0.0159593 0.143274
v -0.0161232 0.045162 0.161737 1 0.494379 0
vn 0.940926 -0.170219 -0.292717
v 0.00354857 0.00570857 0.162 1 0.490309 0
vn 0.950102 0.14912 -0.27399
v 0.0152905 0.0508945 0.157172 0.968674 0.535293 0
vn 0.951885 0.21301 -0.220321
v 0.0163139 0.0153235 0.17297 1 0.320664 0
vn 0.957291 0.0957204 -0.272822
v 0.00256769 0.00565019 0.022756 0 0.336433 0.663567
vn 0.998465 0.0289814 0.047201
v 0.0128653 -0.0385052 0.155443 1 0.591712 0
vn 0.982771 -0.04023 -0.180398
v 0.0112016 -0.0476642 0.168383 1 0.391607 0
vn 0.976861 0.0118711 -0.213548
f 2//2 22//22 3//3
f 3//3 15//15 2//2
f 15//15 48//48 2//2
f 48//48 41//41 2//2
f 41//41 22//22 2//2
f 41//41 53//53 22//22
f 53//53 37//37 22//22
f 37//37 18//18 22//22
f 18//18 14//14 22//22
f 14//14 3//3 22//22
f 18//18 8//8 14//14
f 18//18 20//20 8//8
f 18//18 21//21 20//20
f 21//21 108//108 20//20
f 108//108 109//109 20//20
f 109//109 100//100 20//20
f 100//100 10//10 20//20
f 108//108 29//29 109//109
f 29//29 95//95 109//109
f 108//108 56//56 29//29
f 56//56 25//25 29//29
f 25//25 106//106 29//29
f 25//25 54//54 106//106
f 54//54 105//105 106//106
f 54//54 85//85 105//105
f 85//85 68//68 105//105
f 68//68 89//89 105//105
f 68//68 69//69 89//89
f 69//69 71//71 89//89
f 71//71 91//91 89//89
f 71//71 78//78 91//91
f 78//78 82//82 91//91
f 78//78 38//38 82//82
f 38//38 35//35 82//82
f 35//35 86//86 82//82
f 35//35 66//66 86//86
f 66//66 99//99 86//86
f 99//99 87//87 86//86
f 99//99 92//92 87//87
f 66//66 17//17 99//99
f 17//17 83//83 99//99
f 17//17 44//44 83//83
f 44//44 42//42 83//83
f 42//42 107//107 83//83
f 42//42 96//96 107//107
f 44//44 26//26 42//42
f 44//44 34//34 26//26
f 34//34 15//15 26//26
f 34//34 48//48 15//15
f 34//34 35//35 48//48
f 35//35 38//38 48//48
f 38//38 41//41 48//48
f 38//38 53//53 41//41
f 38//38 27//27 53//53
f 27//27 58//58 53//53
f 58//58 59//59 53//53
f 59//59 46//46 53//53
f 46//46 37//37 53//53
f 46//46 18//18 37//37
f 46//46 21//21 18//18
f 46//46 108//108 21//21
f 46//46 56//56 108//108
f 46//46 25//25 56//56
f 46//46 59//59 25//25
f 59//59 58//58 25//25
f 58//58 69//69 25//25
f 69//69 101//101 25//25
f 101//101 54//54 25//25
f 101//101 85//85 54//54
f 101//101 68//68 85//85
f 101//101 69//69 68//68
f 58//58 27//27 69//69
f 27//27 71//71 69//69
f 27//27 38//38 71//71
f 38//38 78//78 71//71
f 34//34 66//66 35//35
f 34//34 44//44 66//66
f 44//44 17//17 66//66
f 81//81 94//94 93//93
f 94//94 88//88 93//93
f 29//29 106//106 95//95
f 91//91 98//98 89//89
f 82//82 86//86 91//91
f 86//86 94//94 91//91
f 86//86 87//87 94//94
f 83//83 107//107 99//99
f 42//42 26//26 96//96
f 15//15 3//3 26//26
