# Created by Open3D 
# object name: mesh_20251205_213242
# number of vertices: 106
# number of triangles: 84
v 0.000386087 -0.0488835 0.125099 0.932916 0.991883 0
vn 0.992819 -0.0735168 0.0943678
v -0.00274163 -0.0234061 0.0628237 0.0240789 0.9244 0.0755996
vn 0.988703 0.106356 0.105616
v 0.000631512 -0.0437894 0.103944 0.603851 1 0
vn 0.94367 0.271115 0.189695
v 0.00185665 -0.0587775 0.1306 0.999068 0.964902 0
vn 0.996312 -7.21635e-05 0.0858086
v -0.00335563 -0.0275349 0.0763913 0.16881 1 0
vn 0.995356 0.0236067 0.093318
v 0.00443872 -0.0164083 0.0467521 0.00214541 0.689116 0.310884
vn 0.999987 0.00254946 0.00431168
v -0.00137611 -0.0277747 0.102137 0.575321 1 0
vn 0.98878 0.0387092 0.144273
v 0.000898297 -0.0394379 0.0892588 0.371981 1 0
vn 0.965086 0.217585 0.145831
v 0.00540247 -0.0620653 0.139315 1 0.827652 0
vn 0.989028 -0.116271 0.0911319
v 0.00585908 0.00943076 0.0468988 0.000874531 0.692437 0.307563
vn 0.998449 0.0525876 0.0182522
v 0.008791 -0.040933 0.127189 0.905455 0.928636 0
vn 0.992689 -0.0670838 0.10034
v 0.00698261 -0.0211825 0.0676317 0.130004 0.89514 0.10486
vn 0.998981 0.0328111 0.0309958
v -0.0163107 -0.00701319 0.142787 1 0.772833 0
vn 0.964025 -0.108358 -0.242723
v 0.00929488 -0.0406718 0.112269 0.729307 0.9914 0
vn 0.99815 -0.00802715 0.0602694
v -0.00410135 0.0138204 0.123441 0.90547 0.991034 0
vn 0.979682 0.159243 0.121918
v 0.00919227 -0.0367561 0.0949111 0.471451 0.978108 0.0159114
vn 0.998771 0.0154733 0.047081
v 0.00922949 -0.0256268 0.0833494 0.296118 0.980906 0.0190936
vn 0.999223 0.0255929 0.0299691
v -0.0161489 -0.0328755 0.13739 1 0.85805 0
vn 0.992013 0.00147256 -0.126124
v 0.00261364 -0.0472359 0.146978 1 0.706661 0
vn 0.986454 -0.0963611 0.132754
v 0.0151219 0.0446891 0.164356 1 0.432272 0
vn 0.826442 0.4674 -0.313896
v 0.00772362 -0.0509107 0.12495 0.839506 0.89793 0
vn 0.992374 -0.0501793 0.112589
v -0.0155239 0.00724309 0.122813 0.897932 0.994192 0
vn 0.99353 0.0744208 -0.0857867
v 0.00513587 -0.0131914 0.0489542 0.00206858 0.723943 0.276057
vn 0.999981 0.0054611 0.00282489
v 0.011473 0.0150488 0.128505 0.889651 0.893315 0
vn 0.98626 0.0732343 -0.148078
v -0.000965773 -0.0440173 0.139761 1 0.820608 0
vn 0.988844 -0.0769172 0.127562
v 0.00966083 -0.0239878 0.101316 0.561476 0.998531 0
vn 0.99813 0.0549939 0.0266808
v 0.00820871 -0.0435296 0.139793 0.982883 0.804274 0
vn 0.978473 -0.103329 0.178646
v -0.00234866 -0.009498 0.0774401 0.18537 1 0
vn 0.989756 0.0851049 0.114628
v 0.0055422 -0.000728405 0.0451487 0.00117178 0.664566 0.335434
vn 0.999597 0.0260355 0.0112738
v -0.00198619 -0.00477617 0.048267 0 0.714743 0.285257
vn 0.999581 -0.0173705 0.0231633
v 0.00849151 0.00941458 0.0748828 0.199145 0.942156 0.057844
vn 0.999 0.0420766 0.0151298
v -0.0150634 -0.0413144 0.127337 0.957547 0.978664 0
vn 0.960813 0.205012 0.186569
v -0.0160323 -0.0424955 0.138793 1 0.835906 0
vn 0.991708 0.067909 -0.109102
v -0.0166648 0.00878438 0.141747 1 0.78926 0
vn 0.972517 0.174339 -0.154326
v 0.00961318 0.0112738 0.102711 0.583952 0.999263 0
vn 0.993479 0.104221 -0.0462312
v 0.00501587 -0.0198408 0.1585 1 0.524737 0
vn 0.995852 -0.0766592 -0.0490217
v 0.0100738 -0.00917618 0.102453 0.579964 0.999378 0
vn 0.998003 0.0586067 -0.0235784
v -0.0153064 -0.0404556 0.110333 0.704737 1 0
vn 0.913119 0.346918 0.214153
v 0.00737492 -0.00640488 0.0627182 0.0748276 0.87143 0.12857
vn 0.999704 0.0140909 0.0198362
v -0.0151885 -0.0213593 0.10677 0.648478 1 0
vn 0.946848 0.229084 0.225831
v -0.000706933 -0.0398353 0.155829 1 0.566909 0
vn 0.981749 -0.0756084 0.174507
v -0.00271993 -0.00789643 0.0587605 0.00896049 0.873185 0.126815
vn 0.989535 0.0720716 0.125007
v 0.000406822 -0.00788162 0.104549 0.613402 1 0
vn 0.995839 0.0711951 0.0568862
v 0.0016386 -0.0270946 0.125202 0.932995 0.990025 0
vn 0.995921 0.0194201 0.088111
v 0.00973236 -0.0273206 0.121758 0.843316 0.954325 0
vn 0.998805 0.00313231 0.0487798
v -0.015247 -0.0306838 0.126897 0.952954 0.981155 0
vn 0.98942 0.0364093 0.140439
v 0.00900769 -0.0291683 0.13739 0.970368 0.830809 0
vn 0.987338 -0.0693995 0.142646
v -0.000731903 -0.0290149 0.139555 1 0.823876 0
vn 0.992013 0.00147256 -0.126124
v 0.00919975 -0.0106346 0.0839401 0.315904 0.969911 0.0300887
vn 0.999901 0.0140592 -5.67914e-05
v 0.00313727 -0.00531728 0.0315833 0 0.451316 0.548684
vn 0.999282 0.0165447 0.0340828
v 0.00843453 -0.0200624 0.152225 1 0.623814 0
vn 0.999451 -0.0329474 0.0036009
v 0.00987185 -0.00623636 0.118956 0.808119 0.964005 0
vn 0.998511 0.017299 -0.0517409
v 0.00351255 -0.00944872 0.120938 0.870756 0.997806 0
vn 0.99363 0.110901 -0.0200258
v 0.00103987 -0.00950635 0.140039 1 0.816229 0
vn 0.963532 -0.214684 -0.159738
v 0.0115384 0.00470235 0.134931 0.959743 0.860136 0
vn 0.993026 0.0162051 -0.116773
v 0.010853 -0.00967811 0.139583 0.974429 0.80004 0
vn 0.999845 -0.00160552 0.0175154
v -0.0154341 -0.00415405 0.123383 0.905627 0.992749 0
vn 0.988932 -0.13726 -0.0563255
v 0.0016947 0.000867431 0.0145718 0 0.182713 0.817287
vn 0.998573 0.0136357 0.0516258
v -0.00387309 0.0163953 0.13997 1 0.817321 0
vn 0.877027 0.156728 -0.454158
v -0.00179111 0.0117489 0.0778306 0.191536 1 0
vn 0.991657 -0.0173614 0.127728
v -0.00350324 0.0101184 0.101666 0.567888 1 0
vn 0.98659 0.0417626 0.157787
v 0.0200257 0.0177657 0.173937 1 0.281 0
vn 0.962183 0.0592286 -0.265886
v -0.00224672 0.0113249 0.0586699 0.00983997 0.871184 0.128816
vn 0.997608 0.0209378 0.0658716
v 0.00702359 0.00959139 0.0580995 0.0380861 0.83393 0.16607
vn 0.998337 0.0531764 0.0222781
v -0.0021788 0.0124618 0.0482048 0 0.713759 0.286241
vn 0.997403 0.0291437 0.0658581
v -0.0151262 0.0101972 0.106615 0.646032 1 0
vn 0.990023 0.0121176 0.140384
v 0.0119779 0.0415935 0.146407 0.979986 0.697057 0
vn 0.84911 0.457343 -0.264292
v 0.012341 0.0315395 0.133796 0.93545 0.854974 0
vn 0.936252 0.269004 -0.225984
v -0.00657994 0.0318776 0.137624 1 0.854362 0
vn 0.962231 0.238999 -0.130347
v 0.010458 0.0301661 0.117195 0.791082 0.976336 0
vn 0.964666 0.212553 -0.155695
v -0.00633387 0.0330946 0.126017 0.943708 0.987038 0
vn 0.996504 -0.0817624 0.017153
v 0.0104185 0.0297864 0.104485 0.612279 0.999818 0
vn 0.973267 0.203526 -0.106438
v -0.00867875 0.0577294 0.140657 0.983075 0.791514 0
vn 0.845554 0.507685 -0.165214
v -0.00663956 0.0323112 0.10158 0.566526 1 0
vn 0.993877 -0.0380523 0.103737
v -0.0170805 0.0499473 0.142441 1 0.778293 0
vn 0.99964 0.025036 0.00963768
v -0.00802743 0.0375841 0.162183 1 0.466583 0
vn 0.827844 0.23384 -0.509895
v -0.0183769 0.0383706 0.139761 1 0.820615 0
vn 0.978522 0.185045 -0.0908507
v -0.0173979 0.0357657 0.125116 0.933453 0.99155 0
vn 0.973367 -0.0917289 0.2101
v -0.00207719 0.0323579 0.0834018 0.311379 0.965529 0.0344714
vn 0.997338 0.0519923 0.0511299
v 0.00559979 0.02805 0.0917161 0.423284 0.986564 0.0134356
vn 0.995331 0.0963326 -0.00610054
v -0.0150383 0.0314601 0.106 0.636316 1 0
vn 0.949487 -0.165642 0.266529
v 0.00438189 0.00640996 0.0354487 0 0.512348 0.487652
vn 0.998988 0.0351216 0.0281042
v 0.00295415 0.00633741 0.0244166 0 0.338157 0.661843
vn 0.998349 0.0327545 0.0471779
v -0.00204188 0.0511496 0.13941 1 0.826161 0
vn 0.754624 0.642215 -0.134546
v -0.0143403 0.0276584 0.092 0.415263 1 0
vn 0.990653 -0.0737302 0.114766
v 0.0045218 0.0214147 0.0680488 0.116175 0.915955 0.0840449
vn 0.996896 0.0660651 0.0428289
v -0.00196999 0.0276734 0.0688037 0.153832 0.889247 0.110753
vn 0.996179 0.0715128 0.0501266
v -0.00380162 0.0550584 0.135542 0.952282 0.843416 0
vn 0.835271 0.514956 -0.192721
v 0.00723687 0.0447835 0.129829 0.908446 0.890925 0
vn 0.856207 0.480357 -0.190176
v -0.0157452 0.0465171 0.124617 0.924611 0.991372 0
vn 0.963398 -0.185588 0.193445
v 0.0104068 0.0373442 0.108055 0.668527 0.999642 0
vn 0.940301 0.307902 -0.145018
v 0.000576489 0.0228795 0.0546687 0.00213089 0.814322 0.185678
vn 0.995548 0.0915463 0.0224369
v -0.00397124 0.0416269 0.105509 0.569617 0.939053 0
vn 0.983629 0.179616 0.0145778
v 0.0033414 0.0158821 0.0459738 0.00307029 0.676126 0.323874
vn 0.997208 0.0685407 0.0296393
v -0.0149857 -0.00607597 0.102706 0.584303 1 0
vn 0.98574 0.094556 0.139195
v -0.0144426 -0.016544 0.09 0.383684 1 0
vn 0.969543 0.109853 0.218901
v 0.0201977 0.032723 0.171003 1 0.327321 0
vn 0.886568 0.242154 -0.394156
v 0.0167262 0.04124 0.171744 1 0.315627 0
vn 0.85901 0.375969 -0.347491
v -0.0197211 0.0443672 0.163182 1 0.450813 0
vn 0.857185 0.131094 -0.498045
v -0.00627476 0.0407575 0.100807 0.513627 0.919184 0.0198688
vn 0.984384 0.17448 0.0233549
v 0.0172202 0.036717 0.160087 1 0.499673 0
vn 0.860375 0.383703 -0.33545
v -0.0184524 0.041481 0.155 1 0.58 0
vn 0.91158 0.0931139 -0.400439
v 0.0018223 0.049756 0.139166 0.901461 0.73543 0
vn 0.893407 0.417657 -0.165491
v -0.017381 -0.0588171 0.146 1 0.722105 0
vn 0.999742 0.0208646 0.00898752
v 0.0144379 0.0175299 0.151881 0.990262 0.620409 0
vn 0.9733 0.120433 -0.195404
v 0.000445714 -0.01768 0.156 1 0.564211 0
vn 0.974524 -0.145547 -0.170642
f 6//6 23//23 12//12
f 6//6 50//50 23//23
f 50//50 29//29 23//23
f 29//29 39//39 23//23
f 39//39 12//12 23//23
f 39//39 49//49 12//12
f 49//49 17//17 12//12
f 17//17 16//16 12//12
f 17//17 26//26 16//16
f 26//26 14//14 16//16
f 26//26 45//45 14//14
f 45//45 11//11 14//14
f 11//11 21//21 14//14
f 11//11 27//27 21//21
f 27//27 19//19 21//21
f 19//19 9//9 21//21
f 27//27 51//51 19//19
f 51//51 41//41 19//19
f 27//27 47//47 51//51
f 47//47 56//56 51//51
f 56//56 105//105 51//51
f 105//105 62//62 51//51
f 105//105 97//97 62//62
f 97//97 98//98 62//62
f 97//97 20//20 98//98
f 97//97 101//101 20//20
f 101//101 67//67 20//20
f 67//67 103//103 20//20
f 67//67 89//89 103//103
f 89//89 88//88 103//103
f 88//88 73//73 103//103
f 67//67 68//68 89//89
f 68//68 70//70 89//89
f 70//70 91//91 89//89
f 70//70 72//72 91//91
f 72//72 80//80 91//91
f 72//72 35//35 80//80
f 35//35 31//31 80//80
f 31//31 86//86 80//80
f 86//86 79//79 80//80
f 79//79 93//93 80//80
f 79//79 100//100 93//93
f 31//31 64//64 86//86
f 64//64 94//94 86//86
f 94//94 87//87 86//86
f 94//94 92//92 87//87
f 64//64 10//10 94//94
f 10//10 82//82 94//94
f 10//10 29//29 82//82
f 29//29 50//50 82//82
f 50//50 83//83 82//82
f 50//50 58//58 83//83
f 10//10 64//64 29//29
f 64//64 39//39 29//29
f 64//64 31//31 39//39
f 31//31 49//49 39//39
f 31//31 35//35 49//49
f 35//35 37//37 49//49
f 37//37 26//26 49//49
f 26//26 17//17 49//49
f 37//37 52//52 26//26
f 52//52 45//45 26//26
f 52//52 56//56 45//45
f 56//56 47//47 45//45
f 47//47 11//11 45//45
f 47//47 27//27 11//11
f 52//52 55//55 56//56
f 55//55 105//105 56//56
f 55//55 24//24 105//105
f 24//24 68//68 105//105
f 68//68 67//67 105//105
f 67//67 101//101 105//105
f 101//101 97//97 105//105
f 24//24 70//70 68//68
f 24//24 35//35 70//70
f 35//35 72//72 70//70
f 24//24 52//52 35//35
f 52//52 37//37 35//35
f 24//24 55//55 52//52
f 14//14 21//21 16//16
f 20//20 103//103 98//98
f 100//100 103//103 93//93
f 79//79 87//87 100//100
f 82//82 83//83 94//94
